<svg width="33" height="51" viewBox="0 0 33 51" fill="none" xmlns="http://www.w3.org/2000/svg">
<path d="M3.23285 0C2.90588 0 2.5923 0.127306 2.36109 0.353913C2.12989 0.580519 2 0.887863 2 1.20833C2 1.5288 2.12989 1.83615 2.36109 2.06275C2.5923 2.28936 2.90588 2.41667 3.23285 2.41667H3.83941C4.10712 2.41712 4.36739 2.50297 4.58092 2.66123C4.79444 2.8195 4.9496 3.04158 5.02295 3.29392L8.93355 16.7064C9.15473 17.4633 9.62133 18.1291 10.2628 18.603C10.9043 19.077 11.6858 19.3333 12.4891 19.3333H23.7549C24.4942 19.3335 25.2166 19.1164 25.8288 18.7102C26.4411 18.304 26.915 17.7272 27.1896 17.0544L30.824 8.14658C30.9734 7.78004 31.029 7.3832 30.9858 6.99077C30.9426 6.59833 30.802 6.22223 30.5762 5.89536C30.3505 5.56848 30.0465 5.30078 29.6908 5.11565C29.3351 4.93051 28.9386 4.83358 28.5359 4.83333H8.03603L7.39248 2.62933C7.17187 1.87237 6.70583 1.20637 6.06481 0.732C5.42378 0.257633 4.64263 0.000687223 3.83941 0H3.23285ZM13.0956 29C13.5813 29 14.0623 28.9062 14.511 28.7241C14.9598 28.5419 15.3675 28.2749 15.7109 27.9383C16.0544 27.6017 16.3268 27.202 16.5127 26.7622C16.6985 26.3224 16.7942 25.851 16.7942 25.375C16.7942 24.899 16.6985 24.4276 16.5127 23.9878C16.3268 23.548 16.0544 23.1483 15.7109 22.8117C15.3675 22.4751 14.9598 22.2081 14.511 22.0259C14.0623 21.8438 13.5813 21.75 13.0956 21.75C12.1147 21.75 11.174 22.1319 10.4804 22.8117C9.78677 23.4916 9.3971 24.4136 9.3971 25.375C9.3971 26.3364 9.78677 27.2584 10.4804 27.9383C11.174 28.6181 12.1147 29 13.0956 29ZM22.9584 29C23.4441 29 23.9251 28.9062 24.3738 28.7241C24.8225 28.5419 25.2303 28.2749 25.5737 27.9383C25.9172 27.6017 26.1896 27.202 26.3755 26.7622C26.5613 26.3224 26.657 25.851 26.657 25.375C26.657 24.899 26.5613 24.4276 26.3755 23.9878C26.1896 23.548 25.9172 23.1483 25.5737 22.8117C25.2303 22.4751 24.8225 22.2081 24.3738 22.0259C23.9251 21.8438 23.4441 21.75 22.9584 21.75C21.9775 21.75 21.0368 22.1319 20.3432 22.8117C19.6496 23.4916 19.2599 24.4136 19.2599 25.375C19.2599 26.3364 19.6496 27.2584 20.3432 27.9383C21.0368 28.6181 21.9775 29 22.9584 29Z" fill="#242424"/>
<path d="M9.42781 41.328C9.01181 40.88 8.60648 40.5813 8.21181 40.432C7.82781 40.2827 7.43848 40.208 7.04381 40.208C6.45715 40.208 5.92381 40.3147 5.44381 40.528C4.97448 40.7307 4.56915 41.0187 4.22781 41.392C3.88648 41.7547 3.61981 42.1813 3.42781 42.672C3.24648 43.1627 3.15581 43.6907 3.15581 44.256C3.15581 44.864 3.24648 45.424 3.42781 45.936C3.61981 46.448 3.88648 46.8907 4.22781 47.264C4.56915 47.6373 4.97448 47.9307 5.44381 48.144C5.92381 48.3573 6.45715 48.464 7.04381 48.464C7.50248 48.464 7.94515 48.3573 8.37181 48.144C8.80915 47.92 9.21448 47.568 9.58781 47.088L11.2518 48.272C10.7398 48.976 10.1158 49.488 9.37981 49.808C8.64381 50.128 7.85981 50.288 7.02781 50.288C6.15315 50.288 5.34781 50.1493 4.61181 49.872C3.88648 49.584 3.25715 49.184 2.72381 48.672C2.20115 48.1493 1.79048 47.5253 1.49181 46.8C1.19315 46.0747 1.04381 45.2693 1.04381 44.384C1.04381 43.4773 1.19315 42.656 1.49181 41.92C1.79048 41.1733 2.20115 40.5387 2.72381 40.016C3.25715 39.4933 3.88648 39.0933 4.61181 38.816C5.34781 38.528 6.15315 38.384 7.02781 38.384C7.79581 38.384 8.50515 38.5227 9.15581 38.8C9.81715 39.0667 10.4305 39.5253 10.9958 40.176L9.42781 41.328ZM17.3089 48.944H17.2609C16.9836 49.3813 16.6316 49.7013 16.2049 49.904C15.7783 50.096 15.3089 50.192 14.7969 50.192C14.4449 50.192 14.0983 50.144 13.7569 50.048C13.4263 49.952 13.1276 49.808 12.8609 49.616C12.6049 49.424 12.3969 49.184 12.2369 48.896C12.0769 48.608 11.9969 48.272 11.9969 47.888C11.9969 47.472 12.0716 47.12 12.2209 46.832C12.3703 46.5333 12.5676 46.288 12.8129 46.096C13.0689 45.8933 13.3623 45.7333 13.6929 45.616C14.0236 45.4987 14.3649 45.4133 14.7169 45.36C15.0796 45.296 15.4423 45.2587 15.8049 45.248C16.1676 45.2267 16.5089 45.216 16.8289 45.216H17.3089V45.008C17.3089 44.528 17.1436 44.1707 16.8129 43.936C16.4823 43.6907 16.0609 43.568 15.5489 43.568C15.1436 43.568 14.7649 43.6427 14.4129 43.792C14.0609 43.9307 13.7569 44.1227 13.5009 44.368L12.4929 43.36C12.9196 42.9227 13.4156 42.608 13.9809 42.416C14.5569 42.224 15.1489 42.128 15.7569 42.128C16.3009 42.128 16.7596 42.192 17.1329 42.32C17.5063 42.4373 17.8156 42.592 18.0609 42.784C18.3063 42.976 18.4929 43.2 18.6209 43.456C18.7596 43.7013 18.8556 43.952 18.9089 44.208C18.9729 44.464 19.0103 44.7147 19.0209 44.96C19.0316 45.1947 19.0369 45.4027 19.0369 45.584V50H17.3089V48.944ZM17.1969 46.56H16.7969C16.5303 46.56 16.2316 46.5707 15.9009 46.592C15.5703 46.6133 15.2556 46.6667 14.9569 46.752C14.6689 46.8267 14.4236 46.944 14.2209 47.104C14.0183 47.2533 13.9169 47.4667 13.9169 47.744C13.9169 47.9253 13.9543 48.08 14.0289 48.208C14.1143 48.3253 14.2209 48.4267 14.3489 48.512C14.4769 48.5973 14.6209 48.6613 14.7809 48.704C14.9409 48.736 15.1009 48.752 15.2609 48.752C15.9223 48.752 16.4076 48.5973 16.7169 48.288C17.0369 47.968 17.1969 47.536 17.1969 46.992V46.56ZM21.1827 42.32H23.1027V43.536H23.1347C23.348 43.088 23.652 42.7413 24.0467 42.496C24.4414 42.2507 24.8947 42.128 25.4067 42.128C25.524 42.128 25.636 42.1387 25.7427 42.16C25.86 42.1813 25.9774 42.208 26.0947 42.24V44.096C25.9347 44.0533 25.7747 44.0213 25.6147 44C25.4654 43.968 25.316 43.952 25.1667 43.952C24.7187 43.952 24.356 44.0373 24.0787 44.208C23.812 44.368 23.604 44.5547 23.4547 44.768C23.316 44.9813 23.22 45.1947 23.1667 45.408C23.124 45.6213 23.1027 45.7813 23.1027 45.888V50H21.1827V42.32ZM26.5854 43.952V42.32H28.1694V40.096H30.0894V42.32H32.2014V43.952H30.0894V47.312C30.0894 47.696 30.1588 48 30.2974 48.224C30.4468 48.448 30.7348 48.56 31.1614 48.56C31.3321 48.56 31.5188 48.544 31.7214 48.512C31.9241 48.4693 32.0841 48.4053 32.2014 48.32V49.936C31.9988 50.032 31.7481 50.096 31.4494 50.128C31.1614 50.1707 30.9054 50.192 30.6814 50.192C30.1694 50.192 29.7481 50.1333 29.4174 50.016C29.0974 49.9093 28.8414 49.744 28.6494 49.52C28.4681 49.2853 28.3401 48.9973 28.2654 48.656C28.2014 48.3147 28.1694 47.92 28.1694 47.472V43.952H26.5854Z" fill="#242424"/>
</svg>
