<svg width="19" height="24" viewBox="0 0 19 24" fill="none" xmlns="http://www.w3.org/2000/svg">
<path d="M9.5 0C12.0196 0 14.4359 1.08367 16.2175 3.01262C17.9991 4.94156 19 7.55777 19 10.2857C19 14.544 16.0022 19.0057 10.1333 23.7714C9.95062 23.9198 9.72839 24 9.5 24C9.27161 24 9.04938 23.9198 8.86667 23.7714C2.99778 19.0057 0 14.544 0 10.2857C0 7.55777 1.00089 4.94156 2.78249 3.01262C4.56408 1.08367 6.98044 0 9.5 0ZM9.5 6.85714C8.66015 6.85714 7.85469 7.21837 7.26083 7.86135C6.66696 8.50433 6.33333 9.3764 6.33333 10.2857C6.33333 11.195 6.66696 12.0671 7.26083 12.7101C7.85469 13.3531 8.66015 13.7143 9.5 13.7143C10.3399 13.7143 11.1453 13.3531 11.7392 12.7101C12.333 12.0671 12.6667 11.195 12.6667 10.2857C12.6667 9.3764 12.333 8.50433 11.7392 7.86135C11.1453 7.21837 10.3399 6.85714 9.5 6.85714Z" fill="#242424"/>
</svg>
