<svg width="22" height="22" viewBox="0 0 22 22" fill="#fff" xmlns="http://www.w3.org/2000/svg">
<path d="M22 20.0962L15.4381 13.5332C16.4956 12.08 17.0644 10.3286 17.0627 8.53135C17.0627 3.82726 13.2354 0 8.53135 0C3.82726 0 0 3.82726 0 8.53135C0 13.2354 3.82726 17.0627 8.53135 17.0627C10.3286 17.0644 12.08 16.4956 13.5332 15.4381L20.0962 22L22 20.0962ZM8.53135 14.3682C7.37677 14.3683 6.2481 14.026 5.28806 13.3847C4.32802 12.7433 3.57975 11.8316 3.13786 10.7649C2.69598 9.69827 2.58033 8.52452 2.80555 7.39213C3.03077 6.25973 3.58674 5.21956 4.40315 4.40315C5.21956 3.58674 6.25973 3.03077 7.39213 2.80555C8.52452 2.58033 9.69827 2.69598 10.7649 3.13786C11.8316 3.57975 12.7433 4.32802 13.3847 5.28806C14.026 6.2481 14.3683 7.37677 14.3682 8.53135C14.3664 10.0788 13.7509 11.5624 12.6566 12.6566C11.5624 13.7509 10.0788 14.3664 8.53135 14.3682Z" fill="#C0C0C0"/>
</svg>
