<svg width="27" height="29" viewBox="0 0 27 29" fill="none" xmlns="http://www.w3.org/2000/svg">
<path d="M18.85 13.05H7.25C6.4525 13.05 5.8 13.7025 5.8 14.5C5.8 15.2975 6.4525 15.95 7.25 15.95H18.85C19.6475 15.95 20.3 15.2975 20.3 14.5C20.3 13.7025 19.6475 13.05 18.85 13.05ZM23.2 2.9H21.75V1.45C21.75 0.6525 21.0975 0 20.3 0C19.5025 0 18.85 0.6525 18.85 1.45V2.9H7.25V1.45C7.25 0.6525 6.5975 0 5.8 0C5.0025 0 4.35 0.6525 4.35 1.45V2.9H2.9C2.13087 2.9 1.39325 3.20553 0.84939 3.74939C0.305535 4.29325 0 5.03087 0 5.8V26.1C0 26.8691 0.305535 27.6068 0.84939 28.1506C1.39325 28.6945 2.13087 29 2.9 29H23.2C24.795 29 26.1 27.695 26.1 26.1V5.8C26.1 4.205 24.795 2.9 23.2 2.9ZM21.75 26.1H4.35C3.5525 26.1 2.9 25.4475 2.9 24.65V10.15H23.2V24.65C23.2 25.4475 22.5475 26.1 21.75 26.1ZM14.5 18.85H7.25C6.4525 18.85 5.8 19.5025 5.8 20.3C5.8 21.0975 6.4525 21.75 7.25 21.75H14.5C15.2975 21.75 15.95 21.0975 15.95 20.3C15.95 19.5025 15.2975 18.85 14.5 18.85Z" fill="#242424"/>
</svg>
