<svg width="29" height="29" viewBox="0 0 29 29" fill="none" xmlns="http://www.w3.org/2000/svg">
<path d="M1.23285 0C0.905878 0 0.592298 0.127306 0.361094 0.353913C0.129889 0.580519 0 0.887863 0 1.20833C0 1.5288 0.129889 1.83615 0.361094 2.06275C0.592298 2.28936 0.905878 2.41667 1.23285 2.41667H1.83941C2.10712 2.41712 2.36739 2.50297 2.58092 2.66123C2.79444 2.8195 2.9496 3.04158 3.02295 3.29392L6.93355 16.7064C7.15473 17.4633 7.62133 18.1291 8.26281 18.603C8.90429 19.077 9.68577 19.3333 10.4891 19.3333H21.7549C22.4942 19.3335 23.2166 19.1164 23.8288 18.7102C24.4411 18.304 24.915 17.7272 25.1896 17.0544L28.824 8.14658C28.9734 7.78004 29.029 7.3832 28.9858 6.99077C28.9426 6.59833 28.802 6.22223 28.5762 5.89536C28.3505 5.56848 28.0465 5.30078 27.6908 5.11565C27.3351 4.93051 26.9386 4.83358 26.5359 4.83333H6.03603L5.39248 2.62933C5.17187 1.87237 4.70583 1.20637 4.06481 0.732C3.42378 0.257633 2.64263 0.000687223 1.83941 0H1.23285ZM11.0956 29C11.5813 29 12.0623 28.9062 12.511 28.7241C12.9598 28.5419 13.3675 28.2749 13.7109 27.9383C14.0544 27.6017 14.3268 27.202 14.5127 26.7622C14.6985 26.3224 14.7942 25.851 14.7942 25.375C14.7942 24.899 14.6985 24.4276 14.5127 23.9878C14.3268 23.548 14.0544 23.1483 13.7109 22.8117C13.3675 22.4751 12.9598 22.2081 12.511 22.0259C12.0623 21.8438 11.5813 21.75 11.0956 21.75C10.1147 21.75 9.17399 22.1319 8.48038 22.8117C7.78677 23.4916 7.3971 24.4136 7.3971 25.375C7.3971 26.3364 7.78677 27.2584 8.48038 27.9383C9.17399 28.6181 10.1147 29 11.0956 29ZM20.9584 29C21.4441 29 21.9251 28.9062 22.3738 28.7241C22.8225 28.5419 23.2303 28.2749 23.5737 27.9383C23.9172 27.6017 24.1896 27.202 24.3755 26.7622C24.5613 26.3224 24.657 25.851 24.657 25.375C24.657 24.899 24.5613 24.4276 24.3755 23.9878C24.1896 23.548 23.9172 23.1483 23.5737 22.8117C23.2303 22.4751 22.8225 22.2081 22.3738 22.0259C21.9251 21.8438 21.4441 21.75 20.9584 21.75C19.9775 21.75 19.0368 22.1319 18.3432 22.8117C17.6496 23.4916 17.2599 24.4136 17.2599 25.375C17.2599 26.3364 17.6496 27.2584 18.3432 27.9383C19.0368 28.6181 19.9775 29 20.9584 29Z" fill="#242424"/>
</svg>
