<svg width="29" height="30" viewBox="0 0 29 30" fill="none" xmlns="http://www.w3.org/2000/svg">
<path d="M9.425 10.5C6.92533 10.5 4.52805 11.5272 2.76052 13.3557C0.992988 15.1842 0 17.6641 0 20.25C0 21.5304 0.243785 22.7982 0.717435 23.9812C1.19109 25.1641 1.88533 26.2389 2.76052 27.1443C4.52805 28.9728 6.92533 30 9.425 30C10.6627 30 11.8883 29.7478 13.0318 29.2578C14.1753 28.7678 15.2143 28.0497 16.0895 27.1443C16.9647 26.2389 17.6589 25.1641 18.1326 23.9812C18.6062 22.7982 18.85 21.5304 18.85 20.25V17.865L29 15V10.5H13.05V13.5H10.15V10.5H9.425ZM13.05 0V7.5H10.15V0H13.05ZM6.3075 7.92C5.336 8.16 4.408 8.52 3.5235 9L0.203 4.32L2.552 2.55L6.3075 7.92ZM22.997 4.32L20.764 7.5H17.1825L20.648 2.55L22.997 4.32Z" fill="#242424"/>
</svg>
