<svg width="29" height="29" viewBox="0 0 29 29" fill="none" xmlns="http://www.w3.org/2000/svg">
<path fill-rule="evenodd" clip-rule="evenodd" d="M7.16577 6.44444V8.05556H4.72194C3.91941 8.05571 3.14608 8.32018 2.55453 8.79678C1.96297 9.27339 1.59616 9.92751 1.52645 10.6301L0.0121254 25.9357C-0.0264914 26.3249 0.0273701 26.7169 0.170293 27.0869C0.313216 27.4569 0.54208 27.7967 0.842366 28.0848C1.14265 28.373 1.5078 28.6031 1.91466 28.7606C2.32151 28.9182 2.76118 28.9997 3.20578 29H25.7924C26.2371 28.9999 26.677 28.9186 27.0841 28.7611C27.4912 28.6037 27.8565 28.3736 28.157 28.0854C28.4575 27.7973 28.6865 27.4574 28.8296 27.0873C28.9726 26.7172 29.0265 26.325 28.9879 25.9357L27.4735 10.6301C27.4038 9.92724 27.0367 9.27288 26.4448 8.79624C25.8529 8.3196 25.0791 8.05531 24.2762 8.05556H21.8324V6.44444C21.8324 4.73527 21.0598 3.0961 19.6845 1.88753C18.3093 0.678966 16.444 0 14.4991 0C12.5542 0 10.6889 0.678966 9.31365 1.88753C7.93839 3.0961 7.16577 4.73527 7.16577 6.44444ZM14.4991 2.41667C13.2835 2.41667 12.1177 2.84102 11.2582 3.59638C10.3986 4.35173 9.91576 5.37621 9.91576 6.44444V8.05556H19.0824V6.44444C19.0824 5.37621 18.5995 4.35173 17.74 3.59638C16.8804 2.84102 15.7147 2.41667 14.4991 2.41667ZM9.91576 14.5C9.91576 15.5682 10.3986 16.5927 11.2582 17.3481C12.1177 18.1034 13.2835 18.5278 14.4991 18.5278C15.7147 18.5278 16.8804 18.1034 17.74 17.3481C18.5995 16.5927 19.0824 15.5682 19.0824 14.5V12.4861C19.0824 12.1656 19.2273 11.8583 19.4851 11.6317C19.743 11.4051 20.0927 11.2778 20.4574 11.2778C20.8221 11.2778 21.1718 11.4051 21.4297 11.6317C21.6875 11.8583 21.8324 12.1656 21.8324 12.4861V14.5C21.8324 16.2092 21.0598 17.8483 19.6845 19.0569C18.3093 20.2655 16.444 20.9444 14.4991 20.9444C12.5542 20.9444 10.6889 20.2655 9.31365 19.0569C7.93839 17.8483 7.16577 16.2092 7.16577 14.5V12.4861C7.16577 12.1656 7.31064 11.8583 7.5685 11.6317C7.82636 11.4051 8.1761 11.2778 8.54077 11.2778C8.90544 11.2778 9.25517 11.4051 9.51304 11.6317C9.7709 11.8583 9.91576 12.1656 9.91576 12.4861V14.5Z" fill="#242424"/>
</svg>
