<svg width="25" height="24" viewBox="0 0 25 24" fill="none" xmlns="http://www.w3.org/2000/svg">
<path d="M5.5 18H3.5C2.9 18 2.5 17.6 2.5 17V7C2.5 6.4 2.9 6 3.5 6H13.5C14.1 6 14.5 6.4 14.5 7V18" stroke="#262626" stroke-width="2" stroke-linecap="round" stroke-linejoin="round"/>
<path d="M14.5 9H18.5L22.5 13V17C22.5 17.6 22.1 18 21.5 18H19.5" stroke="#262626" stroke-width="2" stroke-linecap="round" stroke-linejoin="round"/>
<path d="M7.5 20C8.60457 20 9.5 19.1046 9.5 18C9.5 16.8954 8.60457 16 7.5 16C6.39543 16 5.5 16.8954 5.5 18C5.5 19.1046 6.39543 20 7.5 20Z" stroke="#262626" stroke-width="2" stroke-linecap="round" stroke-linejoin="round"/>
<path d="M15.5 18H9.5" stroke="#262626" stroke-width="2" stroke-linecap="round" stroke-linejoin="round"/>
<path d="M17.5 20C18.6046 20 19.5 19.1046 19.5 18C19.5 16.8954 18.6046 16 17.5 16C16.3954 16 15.5 16.8954 15.5 18C15.5 19.1046 16.3954 20 17.5 20Z" stroke="#262626" stroke-width="2" stroke-linecap="round" stroke-linejoin="round"/>
</svg>
