<svg width="18" height="19" viewBox="0 0 18 19" fill="none" xmlns="http://www.w3.org/2000/svg">
<g clip-path="url(#clip0_741_4199)">
<path d="M5.25 8.47949L8.25 1.72949C8.84674 1.72949 9.41903 1.96655 9.84099 2.3885C10.2629 2.81046 10.5 3.38276 10.5 3.97949V6.97949H14.745C14.9624 6.97703 15.1778 7.02187 15.3762 7.11091C15.5746 7.19994 15.7512 7.33104 15.8939 7.49513C16.0366 7.65921 16.1419 7.85236 16.2025 8.06118C16.2631 8.27 16.2776 8.48951 16.245 8.70449L15.21 15.4545C15.1558 15.8122 14.9741 16.1382 14.6984 16.3725C14.4228 16.6068 14.0717 16.7336 13.71 16.7295H5.25M5.25 8.47949V16.7295M5.25 8.47949H3C2.60218 8.47949 2.22064 8.63753 1.93934 8.91883C1.65804 9.20014 1.5 9.58167 1.5 9.97949V15.2295C1.5 15.6273 1.65804 16.0088 1.93934 16.2902C2.22064 16.5715 2.60218 16.7295 3 16.7295H5.25" stroke="black" stroke-width="1.5" stroke-linecap="round" stroke-linejoin="round"/>
</g>
<defs>
<clipPath id="clip0_741_4199">
<rect width="18" height="18" fill="white" transform="translate(0 0.229492)"/>
</clipPath>
</defs>
</svg>
