<svg width="33" height="32" viewBox="0 0 33 32" fill="none" xmlns="http://www.w3.org/2000/svg">
<g clip-path="url(#clip0_741_3954)">
<path d="M32.667 16C32.667 7.1635 25.5035 0 16.667 0C7.83049 0 0.666992 7.16337 0.666992 16C0.666992 23.986 6.51799 30.6054 14.167 31.8056V20.625H10.1045V16H14.167V12.475C14.167 8.465 16.5557 6.25 20.2104 6.25C21.961 6.25 23.792 6.5625 23.792 6.5625V10.5H21.7745C19.7867 10.5 19.167 11.7334 19.167 12.9987V16H23.6045L22.8951 20.625H19.167V31.8056C26.816 30.6054 32.667 23.9861 32.667 16Z" fill="#1877F2"/>
<path d="M22.8951 20.625L23.6045 16H19.167V12.9987C19.167 11.7332 19.7869 10.5 21.7745 10.5H23.792V6.5625C23.792 6.5625 21.961 6.25 20.2104 6.25C16.5557 6.25 14.167 8.465 14.167 12.475V16H10.1045V20.625H14.167V31.8056C14.994 31.9352 15.8299 32.0002 16.667 32C17.5041 32.0002 18.34 31.9353 19.167 31.8056V20.625H22.8951Z" fill="white"/>
</g>
<defs>
<clipPath id="clip0_741_3954">
<rect width="32" height="32" fill="white" transform="translate(0.666992)"/>
</clipPath>
</defs>
</svg>
