<svg width="33" height="32" viewBox="0 0 33 32" fill="none" xmlns="http://www.w3.org/2000/svg">
<g clip-path="url(#clip0_741_3945)">
<path d="M32.3174 16.2994C32.3174 14.9884 32.2085 14.0317 31.9729 13.0396H16.6514V18.9569H25.6447C25.4635 20.4274 24.4844 22.642 22.3085 24.1301L22.278 24.3282L27.1224 27.9952L27.458 28.0279C30.5404 25.2463 32.3174 21.1538 32.3174 16.2994Z" fill="#4285F4"/>
<path d="M16.6514 31.8901C21.0574 31.8901 24.7562 30.4727 27.458 28.0279L22.3085 24.1301C20.9305 25.0691 19.081 25.7246 16.6514 25.7246C12.336 25.7246 8.67337 22.9432 7.36774 19.0986L7.17637 19.1145L2.13912 22.9236L2.07324 23.1025C4.75674 28.3112 10.2689 31.8901 16.6514 31.8901Z" fill="#34A853"/>
<path d="M7.36813 19.0987C7.02363 18.1066 6.82426 17.0435 6.82426 15.9451C6.82426 14.8466 7.02363 13.7837 7.35001 12.7915L7.34088 12.5803L2.24051 8.70996L2.07363 8.78752C0.967633 10.949 0.333008 13.3762 0.333008 15.9451C0.333008 18.5141 0.967633 20.9412 2.07363 23.1026L7.36813 19.0987Z" fill="#FBBC05"/>
<path d="M16.6514 6.16537C19.7156 6.16537 21.7826 7.45869 22.9612 8.53948L27.5667 4.14571C24.7382 1.57679 21.0574 0 16.6514 0C10.2689 0 4.75674 3.57875 2.07324 8.78742L7.34962 12.7915C8.67337 8.94693 12.336 6.16537 16.6514 6.16537Z" fill="#EB4335"/>
</g>
<defs>
<clipPath id="clip0_741_3945">
<rect width="32" height="32" fill="white" transform="translate(0.333008)"/>
</clipPath>
</defs>
</svg>
